<svg viewBox="0 0 60 68" fill="none" xmlns="http://www.w3.org/2000/svg">
  <mask id="mask0_1615_20779" style="mask-type: luminance" maskUnits="userSpaceOnUse" x="0" y="0" width="60" height="68">
    <path d="M0.4375 0.255859H59.9501V67.8176H0.4375V0.255859Z" fill="white" />
  </mask>
  <g mask="url(#mask0_1615_20779)">
    <path d="M5.84123 61.0441L0.421875 0.289062H59.9682L54.5446 61.0356L30.157 67.7901L5.84123 61.0441Z" fill="#E44D26" />
  </g>
  <path d="M49.8653 57.0123L54.2897 4.47852H31.0625V62.5394L49.8653 57.0123Z" fill="#F16529" />
  <path
    d="M31.0326 12.9238H11L13.1582 35.4959H31.0599V28.0324H20.4751L19.7435 20.3893H31.0599V12.9238H31.0326ZM31.0599 47.3926L31.0259 47.401L22.1169 45.1571L21.5508 39.2044H13.5159L14.637 50.9237L31.0235 55.1499L31.0599 55.1392V47.3926Z"
    fill="#EBEBEB" />
  <path
    d="M31.0666 35.4768H39.8886L39.0774 45.1465L31.0869 47.3908V55.1499L45.774 50.9126L47.7413 28.0154H31.091L31.0666 35.4768ZM48.8405 14.9253L49.0108 12.9238H31.0625V20.3808H48.3659L48.5079 18.7046L48.8405 14.9253Z"
    fill="white" />
</svg>
