<svg viewBox="0 0 70 50" fill="none" xmlns="http://www.w3.org/2000/svg">
  <path
    d="M43.7081 34.0021C45.8373 37.4933 48.1512 40.8385 53.0526 40.8385C57.1697 40.8385 59.3296 38.7732 59.3296 35.9155C59.3296 32.4956 57.0956 31.2812 52.5666 29.2903L50.0835 28.2216C42.917 25.1531 38.1511 21.3077 38.1511 13.1853C38.1511 5.69953 43.8279 0.00310111 52.6987 0.00310111C59.0157 0.00310111 63.5543 2.2114 66.8281 7.99497L59.0928 12.9865C57.3912 9.91766 55.551 8.70946 52.6987 8.70946C49.7879 8.70946 47.945 10.5636 47.945 12.9865C47.945 15.9806 49.791 17.1922 54.0525 19.0464L56.5356 20.115C64.9818 23.7458 69.745 27.4544 69.745 35.7911C69.745 44.7741 62.7171 49.6971 53.2833 49.6971C44.0555 49.6971 38.8156 45.0225 35.8987 39.2359L43.7081 34.0021ZM8.05852 34.2567C9.61542 37.071 11.9818 39.2359 15.3847 39.2359C18.6401 39.2359 20.514 37.9374 20.514 32.89V0H30.7694V34.4806C30.7694 44.9385 24.7602 49.6971 15.9846 49.6971C8.05545 49.6971 2.33228 44.2739 0 39.2359L8.05852 34.2567Z"
    fill="white" />
</svg>
