<svg viewBox="0 0 66 67" fill="none" xmlns="http://www.w3.org/2000/svg">
  <path
    d="M30.911 0.310657C30.7696 0.323505 30.3198 0.368474 29.915 0.400594C20.5782 1.24215 11.8326 6.27867 6.29347 14.0197C3.20905 18.3239 1.2363 23.2062 0.490903 28.3777C0.227442 30.1828 0.195312 30.716 0.195312 33.1636C0.195312 35.6112 0.227442 36.1444 0.490903 37.9496C2.2773 50.2903 11.0615 60.6589 22.975 64.5005C25.1084 65.1879 27.3575 65.6569 29.915 65.9395C30.911 66.0487 35.2163 66.0487 36.2123 65.9395C40.6269 65.4513 44.3668 64.3592 48.0552 62.4769C48.6207 62.1878 48.7299 62.1107 48.6528 62.0465C48.6014 62.0079 46.1917 58.7766 43.3001 54.8708L38.0437 47.7721L31.4572 38.0267C27.833 32.669 24.8514 28.2877 24.8257 28.2877C24.8 28.2813 24.7743 32.6112 24.7614 37.8982C24.7422 47.1554 24.7357 47.528 24.6201 47.7464C24.453 48.0612 24.3245 48.1897 24.0546 48.331C23.849 48.4338 23.669 48.453 22.6987 48.453H21.587L21.2915 48.2668C21.0987 48.1447 20.9573 47.9841 20.8609 47.7978L20.726 47.5087L20.7388 34.6283L20.7581 21.7415L20.9573 21.491C21.0601 21.3561 21.2786 21.1826 21.4328 21.0991C21.6963 20.9706 21.7991 20.9578 22.9108 20.9578C24.2217 20.9578 24.4401 21.0092 24.7807 21.3818C24.8771 21.4846 28.4435 26.8551 32.7102 33.3242C36.977 39.7933 42.8117 48.6265 45.6777 52.9628L50.8826 60.8452L51.1461 60.6717C53.4787 59.1556 55.9462 56.9971 57.8997 54.7487C62.0572 49.9756 64.7368 44.1553 65.6364 37.9496C65.8999 36.1444 65.932 35.6112 65.932 33.1636C65.932 30.716 65.8999 30.1828 65.6364 28.3777C63.85 16.0369 55.0658 5.66838 43.1523 1.82675C41.051 1.14579 38.8148 0.676832 36.3087 0.39417C35.6918 0.329929 31.4443 0.259264 30.911 0.310657ZM44.3668 20.1869C44.6752 20.3411 44.9258 20.6366 45.0158 20.9449C45.0672 21.112 45.08 24.6838 45.0672 32.7332L45.0479 44.2838L43.0109 41.1617L40.9675 38.0395V29.6432C40.9675 24.2148 40.9932 21.1634 41.0317 21.0156C41.1346 20.6559 41.3595 20.3732 41.6679 20.2062C41.9314 20.0713 42.0278 20.0584 43.0366 20.0584C43.9876 20.0584 44.1547 20.0713 44.3668 20.1869Z"
    fill="white" />
</svg>
