<svg xmlns="http://www.w3.org/2000/svg" width="61" height="26" viewBox="0 0 61 26" fill="none">
  <script xmlns="" />
  <script xmlns="" />
  <path
    d="M15.6184 2.55893e-05C15.3205 -0.00764451 15.0241 0.0429575 14.746 0.14894C14.4679 0.254923 14.2136 0.414209 13.9976 0.617696C13.7816 0.821183 13.6081 1.06488 13.4872 1.33487C13.3662 1.60486 13.3 1.89584 13.2925 2.19119C13.2925 2.80291 13.5375 3.38957 13.9737 3.82212C14.4099 4.25467 15.0015 4.49768 15.6184 4.49768C16.2352 4.49768 16.8268 4.25467 17.263 3.82212C17.6992 3.38957 17.9442 2.80291 17.9442 2.19119C17.9367 1.89584 17.8705 1.60486 17.7496 1.33487C17.6286 1.06488 17.4551 0.821183 17.2391 0.617696C17.0231 0.414209 16.7688 0.254923 16.4907 0.14894C16.2126 0.0429575 15.9162 -0.00764451 15.6184 2.55893e-05Z"
    fill="white" />
  <path
    d="M15.6183 6.42351C15.3634 6.41739 15.1098 6.46118 14.8721 6.55239C14.6343 6.6436 14.417 6.78043 14.2326 6.95505C14.0483 7.12967 13.9004 7.33864 13.7976 7.56999C13.6948 7.80135 13.6391 8.05054 13.6335 8.3033V18.8901C13.6562 19.3975 13.8753 19.8768 14.2454 20.2279C14.6155 20.5791 15.108 20.7751 15.6202 20.7751C16.1325 20.7751 16.6249 20.5791 16.995 20.2279C17.3651 19.8768 17.5843 19.3975 17.6069 18.8901V8.3033C17.6014 8.05021 17.5455 7.80069 17.4425 7.56908C17.3394 7.33747 17.1912 7.12833 17.0065 6.95366C16.8217 6.77899 16.6039 6.64224 16.3657 6.55127C16.1275 6.46029 15.8735 6.41687 15.6183 6.42351Z"
    fill="white" />
  <path
    d="M7.24511 15.6963C7.23192 16.1147 7.05264 16.511 6.74628 16.799C6.43991 17.087 6.03126 17.2433 5.60924 17.234C5.18722 17.2433 4.77857 17.087 4.4722 16.799C4.16584 16.511 3.98656 16.1147 3.97337 15.6963V11.4985C3.98656 11.0801 4.16584 10.6838 4.4722 10.3959C4.77857 10.1079 5.18722 9.95155 5.60924 9.96088C6.03126 9.95155 6.43991 10.1079 6.74628 10.3959C7.05264 10.6838 7.23192 11.0801 7.24511 11.4985V15.6963ZM11.2185 1.88048C11.1959 1.37303 10.9767 0.893797 10.6066 0.542639C10.2365 0.191481 9.74401 -0.0045166 9.23179 -0.0045166C8.71957 -0.0045166 8.22711 0.191481 7.85701 0.542639C7.48691 0.893797 7.26772 1.37303 7.24511 1.88048V6.75101C6.6385 6.5338 5.99833 6.42322 5.35339 6.42426C2.39565 6.42426 0 8.69231 0 11.487V15.4657C0 18.3949 2.51195 20.7591 5.60924 20.7591C8.70653 20.7591 11.2185 18.3834 11.2185 15.4542V1.88048Z"
    fill="white" />
  <path
    d="M48.2387 17.022H46.5176C46.3404 17.0261 46.1642 16.9955 45.9989 16.932C45.8337 16.8686 45.6827 16.7734 45.5545 16.652C45.4263 16.5307 45.3236 16.3854 45.252 16.2246C45.1805 16.0639 45.1416 15.8907 45.1376 15.715V11.4864C45.1416 11.3107 45.1805 11.1376 45.252 10.9768C45.3236 10.816 45.4263 10.6708 45.5545 10.5494C45.6827 10.428 45.8337 10.3329 45.9989 10.2694C46.1642 10.2059 46.3404 10.1753 46.5176 10.1794H48.2581C48.7603 10.1887 49.2458 10.0008 49.6089 9.6566C49.972 9.31241 50.1831 8.83985 50.1963 8.34192C50.1821 7.84468 49.9705 7.3731 49.6076 7.02972C49.2446 6.68635 48.7596 6.49895 48.2581 6.50827H46.3974C43.5056 6.50827 41.1642 8.72249 41.1642 11.4557V15.7611C41.1642 18.4982 43.4901 20.7124 46.3974 20.7124H48.2581C48.5083 20.7237 48.7582 20.6847 48.9928 20.5975C49.2273 20.5104 49.4416 20.3771 49.6228 20.2055C49.8039 20.0339 49.948 19.8277 50.0465 19.5993C50.145 19.371 50.1958 19.1252 50.1958 18.8768C50.1958 18.6284 50.145 18.3826 50.0465 18.1543C49.948 17.9259 49.8039 17.7197 49.6228 17.5481C49.4416 17.3765 49.2273 17.2432 48.9928 17.1561C48.7582 17.0689 48.5083 17.0299 48.2581 17.0412"
    fill="white" />
  <path
    d="M59.0618 10.1717C59.564 10.181 60.0495 9.99304 60.4126 9.64885C60.7757 9.30465 60.9868 8.83209 61 8.33417C60.9868 7.83624 60.7757 7.36368 60.4126 7.01949C60.0495 6.67529 59.564 6.48736 59.0618 6.49667H56.2087V3.10228C56.1861 2.59483 55.9669 2.1156 55.5968 1.76444C55.2267 1.41328 54.7343 1.21729 54.222 1.21729C53.7098 1.21729 53.2174 1.41328 52.8473 1.76444C52.4772 2.1156 52.258 2.59483 52.2354 3.10228V15.7611C52.2354 18.4942 54.5612 20.7123 57.4686 20.7123H59.0696C59.3198 20.7237 59.5697 20.6846 59.8042 20.5975C60.0388 20.5104 60.2531 20.377 60.4342 20.2054C60.6153 20.0339 60.7595 19.8277 60.858 19.5993C60.9565 19.3709 61.0072 19.1251 61.0072 18.8767C61.0072 18.6284 60.9565 18.3826 60.858 18.1542C60.7595 17.9258 60.6153 17.7196 60.4342 17.5481C60.2531 17.3765 60.0388 17.2431 59.8042 17.156C59.5697 17.0689 59.3198 17.0298 59.0696 17.0412H57.5887C57.4116 17.0452 57.2353 17.0147 57.0701 16.9512C56.9048 16.8877 56.7538 16.7926 56.6257 16.6712C56.4975 16.5498 56.3947 16.4046 56.3232 16.2438C56.2516 16.083 56.2128 15.9098 56.2087 15.7341V10.1717H59.0618Z"
    fill="white" />
  <path
    d="M26.0808 10.1717C26.5827 10.18 27.0676 9.99176 27.4305 9.64777C27.7933 9.30379 28.0048 8.83182 28.019 8.33423C28.0048 7.83663 27.7933 7.36466 27.4305 7.02068C27.0676 6.67669 26.5827 6.48843 26.0808 6.49672H25.2551C22.3632 6.49672 20.0219 8.7148 20.0219 11.448V18.8903C20.0445 19.3977 20.2637 19.8769 20.6338 20.2281C21.0039 20.5793 21.4963 20.7753 22.0085 20.7753C22.5208 20.7753 23.0132 20.5793 23.3833 20.2281C23.7534 19.8769 23.9726 19.3977 23.9952 18.8903V11.4787C23.9993 11.303 24.0381 11.1299 24.1097 10.9691C24.1812 10.8083 24.284 10.6631 24.4122 10.5417C24.5403 10.4203 24.6913 10.3252 24.8566 10.2617C25.0218 10.1982 25.1981 10.1676 25.3752 10.1717H26.0808Z"
    fill="white" />
  <path
    d="M32.6592 9.7563C32.619 9.53114 32.625 9.30024 32.6769 9.07744C32.7288 8.85464 32.8255 8.64452 32.9613 8.45967C33.097 8.27482 33.2689 8.11903 33.4668 8.00166C33.6647 7.88428 33.8845 7.80772 34.1129 7.77656C34.5778 7.67925 35.0626 7.76311 35.4668 8.01075C35.8709 8.2584 36.1635 8.65083 36.2837 9.10664C36.3251 9.33163 36.3201 9.56261 36.2689 9.78561C36.2177 10.0086 36.1214 10.219 35.9859 10.4041C35.8504 10.5891 35.6784 10.745 35.4804 10.8623C35.2824 10.9795 35.0625 11.0558 34.8339 11.0864C34.3691 11.1837 33.8843 11.0998 33.4801 10.8522C33.0759 10.6045 32.7834 10.2121 32.6631 9.7563H32.6592ZM39.9276 16.6988C39.8695 16.4423 39.7588 16.2003 39.6026 15.9878C39.4464 15.7754 39.2478 15.597 39.0193 15.4637C38.7907 15.3303 38.537 15.2449 38.2739 15.2127C38.0107 15.1806 37.7437 15.2023 37.4893 15.2765C36.9236 15.4563 36.3377 15.566 35.7449 15.6032C35.257 15.6518 34.7684 15.5184 34.3742 15.2292C33.9801 14.94 33.7087 14.5156 33.6129 14.0387C33.5837 13.8592 33.5837 13.6762 33.6129 13.4967C34.5003 13.8065 35.4597 13.8519 36.3729 13.6274C36.9536 13.491 37.5007 13.24 37.9815 12.8894C38.4623 12.5388 38.8669 12.0957 39.1712 11.5865C39.4755 11.0774 39.6732 10.5127 39.7525 9.92614C39.8319 9.33957 39.7912 8.74316 39.633 8.17251C38.9662 5.62769 36.462 4.08234 33.4927 4.61283C32.3423 4.79844 31.2833 5.3479 30.4736 6.17924C29.6639 7.01059 29.1469 8.07926 28.9999 9.22581C28.9167 10.5135 29.008 11.8064 29.2712 13.07C29.5775 14.7191 30.0077 16.0722 30.6241 16.9794C31.1477 17.7284 31.8415 18.3448 32.6495 18.7789C33.4576 19.2129 34.3572 19.4524 35.2759 19.4781C36.4794 19.5544 37.6821 19.3172 38.7647 18.79C39.3151 18.4864 40.102 17.7829 39.8927 16.6988"
    fill="#BECD00" />
  <script xmlns="" />
  <script xmlns="" />
</svg>
