<svg width="438" height="30" viewBox="0 0 438 30" fill="currentColor" xmlns="http://www.w3.org/2000/svg">
  <path
    fill-rule="evenodd"
    clip-rule="evenodd"
    d="M186.023 2.87311C165.446 3.8577 145.11 5.06835 125.28 6.39189C97.2069 8.26423 69.1452 10.2011 41.2526 13.2679C32.4727 14.2363 23.5565 14.8497 14.8314 16.0602C9.35438 16.8188 2.09194 17.9001 1.13883 18.1261C0.64032 18.2552 0.422837 18.4491 0.352562 18.5137C-0.141559 18.9656 -0.0514004 19.4012 0.227503 19.7402C0.339504 19.8854 0.622721 20.2407 1.40892 20.2891C53.9878 23.598 107.753 17.1417 160.395 16.4637C251.687 15.3016 345.745 19.9179 436.312 29.9897C437.103 30.0704 437.871 29.6668 437.981 29.0696C438.113 28.4885 437.542 27.9236 436.751 27.8429C346.031 17.7549 251.818 13.1225 160.351 14.3007C111.29 14.9302 61.2612 20.5958 12.1324 18.6589C13.2612 18.4975 14.3681 18.336 15.3783 18.1907C24.0683 16.9802 32.947 16.383 41.6919 15.4145C69.5252 12.3478 97.5298 10.4109 125.565 8.55471C160.351 6.23043 196.653 4.22895 233.239 3.29279C246.328 3.43805 259.373 3.58338 272.418 3.76093C300.637 4.14831 328.989 5.27818 357.143 6.79541C365.62 7.2635 374.097 7.74768 382.574 8.16734C385.385 8.31261 392.632 8.7322 393.642 8.69992C394.894 8.66764 395.135 7.89295 395.157 7.76382C395.223 7.47329 395.179 7.06974 394.564 6.73079C394.498 6.68236 394.103 6.52085 393.225 6.42401C342.034 0.710164 287.373 -0.241994 233.283 1.12997C176.229 0.532765 118.955 0.274394 62.0453 0C61.2305 0 60.5651 0.484295 60.5585 1.0815C60.5541 1.67871 61.2107 2.16303 62.0254 2.17917C103.233 2.37286 144.649 2.56644 186.023 2.87311Z"
    fill="currentColor" />
</svg>
